<svg width="1000" height="395" viewBox="0 0 1000 395" xmlns="http://www.w3.org/2000/svg" xmlns:xlink="http://www.w3.org/1999/xlink"><title>Group 21</title><defs><path id="a" d="M0 0h1000v395H0z"/><filter x="-50%" y="-50%" width="200%" height="200%" filterUnits="objectBoundingBox" id="c"><feGaussianBlur stdDeviation="1.518" in="SourceGraphic"/></filter></defs><g fill="none" fill-rule="evenodd"><mask id="b" fill="#fff"><use xlink:href="#a"/></mask><use fill="#FFF" xlink:href="#a"/><path fill="#FF827A" mask="url(#b)" d="M-77.934 193.716L821.24-57.1l156.253 40.247v421.7H-67.84"/><path d="M-64.114 439.008L542.97-55.496S1088.53 3.878 1195.724-.49c107.194-4.37 59.707 125.743 59.707 125.743l-286.19 331.61H-106l41.886-17.855z" fill-opacity=".56" fill="#FE6E6E" mask="url(#b)"/><path fill="#F15D5D" mask="url(#b)" d="M123.374 433.995l849.108-490.49 70.91 97.564 7.71 367.54"/><g transform="translate(64 33)" mask="url(#b)"><ellipse fill="#FD6E6E" opacity=".218" filter="url(#c)" cx="43.5" cy="81.5" rx="18.5" ry="3.5"/><path fill="#FDB300" d="M19.736 5.31l23.68-2.517 23.68 2.517 18.33 24.738-42.01 49.18-42.013-49.18"/><path fill="#EA6C00" d="M18.42 30.048l24.995 49.18-42.012-49.18"/><path fill="#EA6C00" d="M68.41 30.048l-24.995 49.18 42.012-49.18"/><path fill="#FDAD00" d="M18.42 30.048h49.99l-24.995 49.18"/><path fill="#FDD231" d="M43.415 2.793L19.735 5.31 18.42 30.048M43.415 2.793l23.68 2.517 1.315 24.738"/><path fill="#FDAD00" d="M85.427 30.048L67.094 5.31l1.316 24.738m-67.007 0L19.736 5.31 18.42 30.048"/><path fill="#FEEEB7" d="M43.415 2.793L18.42 30.048h49.99"/></g></g></svg>